Coordinates
version=1
nRows=26
nColumns=33
inDegrees=yes

Units are S.I. units (second, meters, Newtons, ...)
Angles are in degrees.

endheader
time	ground_thorax_rot_x	ground_thorax_rot_y	ground_thorax_rot_z	ground_thorax_tx	ground_thorax_ty	ground_thorax_tz	clav_prot_r	clav_elev_r	scapula_abduction_r	scapula_elevation_r	scapula_upward_rot_r	scapula_winging_r	shoulder_elv_r	plane_of_elev_r	axial_rot_r	elbow_flexion_r	pro_sup_r	wrist_flex_r	wrist_dev_r	clav_prot_l	clav_elev_l	scapula_abduction_l	scapula_elevation_l	scapula_upward_rot_l	scapula_winging_l	shoulder_elv_l	plane_of_elev_l	axial_rot_l	elbow_flexion_l	pro_sup_l	wrist_flex_l	wrist_dev_l	
3.5100	39.131686	13.209847	16.956363	-155.282115	797.880200	4.567734	13.874052	41.714131	40.810666	44.792900	-24.597545	2071.428043	61.443713	31.778297	49.364327	2171.115233	10.631671	18.101722	11.886054	7.533720	-45.000000	-38.051373	45.000000	-44.999900	89.376312	265.640578	134.522092	-180.000000	1089.746516	30.546425	10.123222	-20.955386	
3.5200	39.048459	13.328901	17.181836	-151.338476	795.416774	4.668095	14.025969	41.730441	40.963796	44.638438	-24.412083	2071.465192	61.132931	31.651571	49.772694	2170.986901	10.950170	17.992361	12.093946	7.408788	-45.000000	-38.020141	45.000000	-44.999821	88.960609	265.420799	134.527437	-180.000000	1089.577711	30.873459	10.240810	-20.869487	
3.5300	38.935457	13.448521	17.409466	-147.396883	792.970822	4.780439	14.090511	41.697075	41.120572	44.409833	-24.181395	2071.469804	60.847202	31.495463	50.250993	2170.853781	11.291117	17.885047	12.271295	7.323048	-45.000000	-38.015950	45.000000	-44.999680	88.590033	265.209780	134.513419	-180.000000	1089.391978	31.216180	10.360050	-20.785190	
3.5400	38.821263	13.520084	17.591719	-143.463705	790.560640	4.904713	14.187617	41.655972	41.339411	44.107960	-23.883678	2071.369206	60.543697	31.355700	50.828760	2170.700787	11.668526	17.777864	12.440918	7.215188	-45.000000	-37.979588	45.000000	-44.999426	88.215010	265.026020	134.483111	-180.000000	1089.195761	31.561177	10.455362	-20.699140	
3.5500	38.683199	13.591362	17.770534	-139.545650	788.207747	5.041671	14.201894	41.573245	41.559032	43.742369	-23.545047	2071.240807	60.267927	31.189279	51.473136	2170.546545	12.073295	17.676337	12.576860	7.142200	-45.000000	-37.982645	45.000000	-44.998975	87.877029	264.856657	134.443810	-180.000000	1088.987553	31.900235	10.554479	-20.618207	
3.5600	38.552847	13.625382	17.900183	-135.651866	785.937741	5.195015	14.239491	41.461843	41.814221	43.335466	-23.139164	2071.049379	59.989576	31.022378	52.204907	2170.384814	12.520901	17.580041	12.706696	7.044461	-45.000000	-37.989792	45.000000	-44.998154	87.529447	264.713706	134.401878	-180.000000	1088.775708	32.220234	10.639453	-20.540820	
3.5700	38.413526	13.674849	18.027967	-131.794657	783.780863	5.370890	14.184446	41.296857	42.036342	42.910369	-22.710454	2070.884395	59.753121	30.821119	52.960905	2170.229845	13.000438	17.492513	12.800037	6.988183	-45.000000	-38.059504	45.000000	-44.996723	87.217759	264.575189	134.357448	-180.000000	1088.554845	32.516777	10.741044	-20.474305	
3.5800	38.307189	13.691585	18.097323	-127.995799	781.776896	5.588831	14.186598	41.136368	42.289892	42.485063	-22.242556	2070.670940	59.507104	30.637624	53.757861	2170.063132	13.531179	17.410348	12.885060	6.898621	-45.000000	-38.117090	45.000000	-44.994049	86.877437	264.458677	134.313983	-180.000000	1088.333241	32.785837	10.825779	-20.412840	
3.5900	38.217126	13.721553	18.156846	-124.282334	779.971253	5.871001	14.142953	40.986593	42.526241	42.066599	-21.782836	2070.476647	59.287665	30.443470	54.531671	2169.893696	14.103937	17.335565	12.927626	6.836432	-45.000000	-38.195848	45.000000	-44.989564	86.550322	264.344424	134.270419	-180.000000	1088.104781	33.034776	10.913602	-20.360822	
3.6000	38.201653	13.711743	18.115085	-120.718784	778.450423	6.301745	14.158123	40.854199	42.812675	41.665918	-21.235500	2070.236742	59.065268	30.237303	55.319326	2169.717655	14.745525	17.268449	12.964504	6.733708	-45.000000	-38.270696	45.000000	-44.980680	86.173683	264.248925	134.230273	-180.000000	1087.914132	33.277452	10.969825	-20.312355	
3.6100	38.249985	13.706121	18.010640	-117.351381	777.276415	6.926368	14.123819	40.753391	43.103755	41.285342	-20.650354	2069.996959	58.868474	30.012901	56.064357	2169.544377	15.441320	17.208309	12.953272	6.663543	-45.000000	-38.371740	45.000000	-44.967140	85.788191	264.151179	134.190444	-180.000000	1087.766195	33.537090	11.013960	-20.273631	
3.6200	38.488221	13.623080	17.620429	-114.421597	776.723741	8.158744	14.105905	40.706133	43.471830	40.920444	-19.799389	2069.646421	58.650669	29.775391	56.783398	2169.359214	16.203267	17.144098	12.931368	6.595669	-45.000000	-38.510057	45.000000	-44.936259	85.273652	264.039278	134.145294	-180.000000	1087.791265	33.940292	10.961734	-20.196613	
3.6300	38.847093	13.520188	17.063236	-111.869528	776.699172	9.885010	14.049959	40.707683	43.847892	40.564192	-18.802227	2069.258850	58.442168	29.533243	57.469936	2169.177614	17.009646	17.078774	12.858667	6.549766	-45.000000	-38.684310	45.000000	-44.899442	84.687950	263.903051	134.106731	-180.000000	1087.955130	34.547701	10.830478	-20.095012	
3.6400	39.327047	13.354316	16.307834	-109.640157	777.104122	12.010175	14.047190	40.732932	44.245983	40.225488	-17.594772	2068.804229	58.216105	29.306473	58.160292	2168.995701	17.874675	17.015528	12.786925	6.463907	-45.000000	-38.873170	45.000000	-44.847572	83.998228	263.764707	134.075032	-180.000000	1088.262110	35.400531	10.584754	-19.965073	
3.6500	39.754281	13.223555	15.633163	-107.439166	777.559274	13.999335	14.031142	40.750954	44.563756	39.904464	-16.478835	2068.408217	58.018111	29.127634	58.809272	2168.832159	18.767734	16.962756	12.673323	6.378187	-45.000000	-39.055658	45.000000	-44.781072	83.353522	263.636573	134.053734	-180.000000	1088.559263	36.402764	10.308573	-19.858420	
3.6600	40.125878	13.093407	15.003748	-105.244043	778.002662	15.802370	14.005175	40.749064	44.810847	39.602402	-15.402383	2068.069932	57.842187	28.984342	59.376184	2168.685149	19.681944	16.920157	12.549092	6.293573	-45.000000	-39.256547	45.000000	-44.653936	82.752952	263.517521	134.037178	-180.000000	1088.836064	37.498532	10.001131	-19.762025	
3.6700	40.315715	13.026132	14.622521	-102.835240	778.147293	16.998272	13.939829	40.704525	44.937289	39.318916	-14.592523	2067.875573	57.721349	28.888590	59.837671	2168.568205	20.591043	16.894456	12.389065	6.223416	-45.000000	-39.457590	45.000000	-44.448576	82.311040	263.417069	134.033342	-180.000000	1088.964521	38.523905	9.747459	-19.717064	
3.6800	40.388144	12.938383	14.335833	-100.285622	778.055472	17.680408	13.889465	40.610682	45.000000	39.057386	-13.861468	2067.756727	57.619742	28.820542	60.207810	2168.469601	21.509870	16.886330	12.254085	6.133275	-45.000000	-39.697649	45.000000	-44.087001	81.975855	263.336290	134.039384	-180.000000	1088.980982	39.394036	9.532875	-19.704586	
3.6900	40.338930	12.850896	14.147281	-97.657411	777.779758	17.920038	13.780884	40.477864	45.000000	38.798648	-13.232287	2067.708186	57.551093	28.773259	60.465217	2168.390356	22.406318	16.889827	12.114888	6.083141	-45.000000	-40.004298	45.000000	-43.533239	81.780200	263.248265	134.056330	-180.000000	1088.883594	40.041350	9.390166	-19.722522	
3.7000	40.288362	12.699643	13.851852	-95.212815	777.602363	18.165247	13.616734	40.333871	45.000000	38.529142	-12.483576	2067.649152	57.490593	28.713614	60.619949	2168.318051	23.255688	16.892320	11.995960	6.072640	-45.000000	-40.415228	45.000000	-42.775206	81.628441	263.123765	134.084790	-180.000000	1088.787146	40.528064	9.265398	-19.721684	
3.7100	40.217343	12.535991	13.532316	-92.956622	777.501960	18.415192	13.380480	40.189713	45.000000	38.239401	-11.711806	2067.601419	57.467393	28.628112	60.696012	2168.257520	24.007100	16.889428	11.872365	6.108711	-45.000000	-40.877762	45.000000	-41.883552	81.530381	262.960665	134.129937	-180.000000	1088.678360	40.870138	9.168975	-19.707545	
3.7200	40.140443	12.353873	13.179243	-90.889689	777.458769	18.668570	13.116969	40.048167	45.000000	37.944116	-10.910128	2067.548513	57.461655	28.537495	60.707819	2168.201107	24.629413	16.880369	11.767894	6.162310	-45.000000	-41.370191	45.000000	-40.908074	81.470211	262.775606	134.183599	-180.000000	1088.570972	41.088443	9.090006	-19.683020	
3.7300	40.053002	12.171664	12.822162	-89.009481	777.455870	18.923591	12.824883	39.912364	45.000000	37.646042	-10.125250	2067.489710	57.470326	28.454008	60.651991	2168.144097	25.086826	16.860524	11.677778	6.241602	-45.000000	-41.870416	45.000000	-39.890059	81.450021	262.576139	134.236804	-180.000000	1088.458666	41.191606	9.033678	-19.650711	
3.7400	39.963644	11.983604	12.457409	-87.309163	777.479926	19.178022	12.533128	39.779603	45.000000	37.361299	-9.363472	2067.416860	57.471910	28.393712	60.549929	2168.090504	25.365396	16.832201	11.611410	6.327711	-45.000000	-42.370428	45.000000	-38.858207	81.464003	262.372135	134.288565	-180.000000	1088.352634	41.187726	8.997764	-19.615245	
3.7500	39.876593	11.795325	12.090514	-85.778120	777.521540	19.429099	12.254541	39.648626	45.000000	37.095679	-8.621898	2067.342091	57.467711	28.340362	60.436902	2168.038697	25.469071	16.797452	11.573127	6.400901	-45.000000	-42.858760	45.000000	-37.831255	81.492911	262.172318	134.339145	-180.000000	1088.251172	41.087080	8.979766	-19.576888	
3.7600	39.802639	11.596300	11.705696	-84.402262	777.575043	19.673362	12.011029	39.505694	45.000000	36.864586	-7.886404	2067.266881	57.444930	28.292614	60.345286	2167.994053	25.423238	16.764578	11.576286	6.451387	-45.000000	-43.327424	45.000000	-36.810015	81.526239	261.975380	134.394067	-180.000000	1088.172396	40.904790	8.971733	-19.540654	
